<svg width="128" height="128" viewBox="0 0 128 128" xmlns="http://www.w3.org/2000/svg">
  <defs><linearGradient id="bg" x1="0" y1="0" x2="1" y2="1"><stop offset="0%" stop-color="#0ea5e9"/><stop offset="100%" stop-color="#10b981"/></linearGradient></defs>
  <path d="M18 26c0-8.84 7.16-16 16-16h60c8.84 0 16 7.16 16 16v36c0 8.84-7.16 16-16 16H57l-18 16v-16H34c-8.84 0-16-7.16-16-16V26z" fill="url(#bg)"/>
  <path d="M83 28c10 6 15 15 15 24 0 16-13 27-28 27-9 0-17-4-22-11 5-1 10-4 14-9 7-9 9-19 21-31z" fill="#fff" fill-opacity=".9"/>
  <circle cx="48" cy="40" r="3" fill="#fff"/>
  <circle cx="63" cy="50" r="3" fill="#fff"/>
  <circle cx="52" cy="62" r="3" fill="#fff"/>
</svg>